# xmcd CD Database Entry
#
# Track frame offsets:
# 182
# 16612
# 34097
# 48872
# 59285
# 77680
# 98255
# 135297
# 154645
# 178112
# 182680
#
# Disc length: 2977 seconds
#
# Revision: 2
# Processed by: cddbd v1.4b41PL1 Copyright (c) Steve Scherf et al.
# Submitted via: tcd 2.0b
#
DISCID=710b9f0b
DTITLE=Robert Earl Keen - walking distance
DYEAR=1900
DGENRE=
TTITLE0=down that dusty trail
TTITLE1=traveling light
TTITLE2=feelin' good again
TTITLE3=that buckin' song
TTITLE4=i'll be here for you
TTITLE5=billy gray
TTITLE6=theme: road to no return - carolina
TTITLE7=new life in old mexico
TTITLE8=sill without you/ conclusion: road to no return
TTITLE9=(silent track)
TTITLE10=happy holidays y'all
EXTD=
EXTT0=
EXTT1=
EXTT2=
EXTT3=
EXTT4=
EXTT5=
EXTT6=
EXTT7=
EXTT8=
EXTT9=
EXTT10=
PLAYORDER=
